<svg width="1024" height="1024" viewBox="0 0 1024 1024" fill="none" xmlns="http://www.w3.org/2000/svg">
<circle cx="512" cy="512" r="512" fill="url(#paint0_linear_3_5)"/>
<g filter="url(#filter0_d_3_5)">
<path d="M380.627 760V683.096H521.105C550.728 683.096 573.4 677.171 589.123 665.322C604.846 653.245 612.707 635.814 612.707 613.027V612.344C612.707 597.305 609.061 584.658 601.77 574.404C594.478 563.923 583.654 556.061 569.299 550.82C555.171 545.579 537.626 542.959 516.662 542.959H380.627V472.891H504.357C533.524 472.891 555.627 467.08 570.666 455.459C585.933 443.61 593.566 427.09 593.566 405.898V405.215C593.566 385.618 586.844 370.465 573.4 359.756C559.956 348.818 541.158 343.35 517.004 343.35H380.627V266.787H543.664C574.882 266.787 601.77 271.8 624.328 281.826C646.887 291.852 664.318 306.208 676.623 324.893C688.928 343.35 695.08 365.225 695.08 390.518V391.201C695.08 409.202 690.865 425.951 682.434 441.445C674.23 456.712 662.951 469.473 648.596 479.727C634.24 489.753 617.948 496.019 599.719 498.525V500.576C622.733 502.171 643.127 508.324 660.9 519.033C678.674 529.515 692.574 543.415 702.6 560.732C712.854 577.822 717.98 597.191 717.98 618.838V619.521C717.98 648.232 711.031 673.07 697.131 694.033C683.459 714.997 663.863 731.289 638.342 742.91C613.049 754.303 582.743 760 547.424 760H380.627ZM329.016 760V266.787H432.238V760H329.016Z" fill="white"/>
</g>
<defs>
<filter id="filter0_d_3_5" x="325.016" y="266.787" width="396.965" height="501.213" filterUnits="userSpaceOnUse" color-interpolation-filters="sRGB">
<feFlood flood-opacity="0" result="BackgroundImageFix"/>
<feColorMatrix in="SourceAlpha" type="matrix" values="0 0 0 0 0 0 0 0 0 0 0 0 0 0 0 0 0 0 127 0" result="hardAlpha"/>
<feOffset dy="4"/>
<feGaussianBlur stdDeviation="2"/>
<feComposite in2="hardAlpha" operator="out"/>
<feColorMatrix type="matrix" values="0 0 0 0 0 0 0 0 0 0 0 0 0 0 0 0 0 0 0.25 0"/>
<feBlend mode="normal" in2="BackgroundImageFix" result="effect1_dropShadow_3_5"/>
<feBlend mode="normal" in="SourceGraphic" in2="effect1_dropShadow_3_5" result="shape"/>
</filter>
<linearGradient id="paint0_linear_3_5" x1="168.659" y1="147.2" x2="822.184" y2="908.44" gradientUnits="userSpaceOnUse">
<stop offset="0.384615" stop-color="#1E1E2E"/>
<stop offset="1" stop-color="#3B3B5C"/>
</linearGradient>
</defs>
</svg>
